<?xml version="1.0" standalone="no"?>
<!DOCTYPE svg PUBLIC "-//W3C//DTD SVG 20010904//EN"
 "http://www.w3.org/TR/2001/REC-SVG-20010904/DTD/svg10.dtd">
<svg version="1.0" xmlns="http://www.w3.org/2000/svg"
 width="2805.000000pt" height="2805.000000pt" viewBox="0 0 2805.000000 2805.000000"
 preserveAspectRatio="xMidYMid meet">
<metadata>
Created by potrace 1.11, written by Peter Selinger 2001-2013
</metadata>
<g transform="translate(0.000000,2805.000000) scale(0.100000,-0.100000)"
fill="#000000" stroke="none">
<path d="M27899 23019 c-20 -5 -89 -24 -154 -44 -144 -43 -233 -53 -295 -32
-49 16 -127 15 -163 -4 -12 -6 -47 -35 -77 -65 -61 -59 -120 -89 -195 -99 -27
-3 -68 -14 -90 -24 -35 -15 -41 -23 -43 -52 -1 -19 -7 -49 -13 -67 -10 -30
-14 -33 -48 -32 -82 4 -90 1 -157 -60 -57 -52 -71 -60 -105 -60 -37 0 -38 1
-35 30 4 39 -7 39 -93 -4 -78 -40 -123 -86 -121 -125 3 -39 1 -51 -9 -51 -4 0
-39 -17 -77 -37 -74 -40 -147 -68 -204 -77 -19 -3 -48 -8 -63 -10 -16 -3 -45
-20 -65 -38 -55 -50 -98 -73 -192 -103 -47 -15 -123 -47 -170 -72 -100 -54
-161 -72 -227 -68 -27 2 -79 -5 -118 -15 -38 -11 -101 -22 -140 -24 -50 -3
-107 -17 -200 -51 -177 -64 -168 -62 -162 -39 3 10 11 44 18 75 11 56 12 57
79 93 107 58 208 87 351 102 71 7 108 23 157 65 23 20 44 29 70 30 125 2 166
8 189 32 14 14 25 37 26 58 l2 34 -55 0 c-102 0 -210 -28 -307 -81 -60 -32
-64 -33 -150 -28 -48 4 -106 6 -127 6 l-40 -1 30 25 c16 13 107 63 202 112
170 85 252 140 252 167 0 20 72 59 151 83 100 31 157 61 186 99 14 18 23 36
21 39 -3 3 -23 -2 -44 -10 -74 -28 -178 -55 -313 -81 -13 -2 -32 -12 -41 -20
-11 -10 -40 -18 -72 -19 -90 -5 -161 -33 -242 -94 -36 -26 -43 -28 -80 -20
-55 13 -108 5 -145 -22 -38 -27 -91 -36 -130 -22 -27 10 -33 7 -69 -26 -149
-142 -234 -194 -377 -228 -181 -43 -194 -44 -228 -24 -45 28 -65 25 -123 -18
-32 -25 -66 -41 -95 -46 -24 -4 -76 -24 -115 -46 -38 -21 -87 -42 -108 -45
-37 -7 -38 -7 -31 16 12 41 36 72 102 134 54 49 105 115 90 115 -2 0 -37 -15
-78 -34 -41 -18 -126 -49 -189 -69 -63 -19 -167 -52 -230 -71 -177 -55 -243
-99 -276 -184 -1 -1 -23 -4 -50 -5 -58 -4 -108 -26 -162 -73 -28 -24 -54 -36
-84 -40 -96 -12 -112 -15 -159 -35 -27 -12 -65 -39 -84 -61 -27 -29 -41 -37
-56 -33 -38 12 -83 -7 -139 -60 -62 -60 -122 -94 -263 -150 -93 -37 -100 -42
-119 -82 -28 -59 -50 -70 -110 -52 -29 8 -52 2 -195 -57 -141 -59 -162 -70
-168 -93 -18 -75 -53 -93 -182 -93 l-92 0 -60 -54 c-37 -34 -70 -75 -86 -109
-22 -44 -34 -56 -63 -66 -21 -6 -41 -15 -47 -19 -5 -4 -37 -17 -70 -30 -64
-25 -268 -128 -350 -177 -27 -16 -52 -38 -54 -49 -7 -39 -29 -52 -83 -49 -61
4 -136 -19 -270 -82 -81 -38 -98 -50 -103 -72 -3 -15 -19 -44 -36 -64 -25 -30
-34 -35 -49 -27 -38 20 -89 11 -170 -32 -88 -46 -143 -55 -198 -32 -29 12 -33
12 -38 -4 -22 -70 -50 -101 -168 -188 -88 -65 -103 -73 -133 -68 -55 9 -98
-12 -152 -75 -28 -32 -56 -58 -63 -58 -7 0 -44 -5 -83 -12 -38 -6 -84 -12
-102 -13 l-31 -2 33 -39 c49 -57 31 -94 -40 -81 -16 3 -43 14 -60 24 l-31 19
-23 -44 c-13 -24 -31 -51 -40 -59 -15 -14 -20 -12 -51 14 -19 17 -44 30 -55
30 -71 0 -294 -100 -397 -178 -117 -88 -237 -154 -433 -240 -49 -22 -130 -58
-178 -81 -49 -23 -90 -41 -92 -41 -1 0 -87 -40 -190 -90 -103 -49 -188 -90
-190 -90 -2 0 -41 -17 -87 -39 -104 -48 -241 -100 -382 -143 -95 -29 -112 -37
-134 -68 -14 -19 -41 -52 -61 -72 l-35 -38 -29 53 c-16 28 -31 54 -34 57 -2 2
-20 -14 -41 -36 -115 -124 -369 -243 -612 -289 -14 -3 -37 -7 -53 -11 l-27 -6
21 37 c30 50 89 88 212 135 76 29 136 62 218 120 267 186 348 239 419 275 41
21 141 77 223 126 82 49 151 89 153 89 3 0 17 9 32 19 15 10 79 52 142 92 128
81 286 195 319 230 12 13 28 47 37 75 12 42 21 55 56 75 23 13 62 36 87 51
191 115 359 193 490 228 60 16 100 36 153 73 83 58 338 309 320 315 -12 4 -84
-30 -148 -70 -22 -14 -78 -62 -124 -106 -69 -67 -87 -79 -102 -71 -26 14 -23
29 22 89 22 29 40 57 40 61 0 11 -113 -32 -235 -89 -121 -57 -231 -120 -306
-177 -69 -53 -86 -62 -124 -68 -136 -23 -268 -80 -512 -223 -50 -30 -94 -54
-98 -54 -4 0 -19 -8 -33 -18 -38 -26 -227 -107 -293 -126 -52 -15 -113 -24
-188 -30 -24 -2 -36 -9 -42 -23 -8 -22 -33 -34 -84 -39 -18 -1 -65 -19 -106
-39 -148 -73 -250 -103 -286 -84 -19 10 -26 10 -40 -4 -24 -21 -109 -57 -137
-57 -12 0 -48 -16 -80 -35 -32 -19 -60 -35 -61 -35 -2 0 -38 -20 -79 -45 -42
-25 -78 -45 -80 -45 -3 0 -46 -24 -98 -53 -169 -95 -424 -217 -573 -273 -77
-29 -92 -32 -104 -20 -20 20 -7 74 27 112 74 84 274 214 587 384 356 194 480
256 486 247 12 -17 134 28 199 74 19 13 37 16 72 12 41 -5 56 -1 115 32 77 43
133 83 182 134 38 39 30 49 -21 28 -45 -19 -73 -7 -88 37 -6 20 -15 36 -19 36
-4 0 -23 -18 -44 -40 -36 -40 -81 -65 -97 -55 -5 3 -39 -14 -77 -39 -37 -24
-99 -58 -138 -76 -169 -79 -224 -104 -287 -131 -38 -15 -68 -26 -68 -24 0 3
-12 0 -27 -6 -15 -5 -71 -12 -125 -14 -94 -5 -100 -6 -128 -35 -31 -32 -78
-56 -225 -116 -83 -33 -300 -133 -335 -153 -62 -36 -499 -250 -747 -365 -110
-51 -213 -84 -213 -67 0 6 164 118 275 187 33 20 62 40 65 44 3 3 26 21 53 40
26 18 47 34 47 35 0 1 -22 0 -50 -3 -56 -4 -61 3 -36 63 12 28 23 36 73 51 32
10 78 34 103 54 47 38 110 70 136 70 19 0 3 -26 -88 -139 -38 -47 -68 -88 -68
-92 0 -10 47 4 90 26 19 10 68 51 109 91 50 49 84 74 99 74 39 0 88 26 116 62
41 55 31 71 -30 47 l-28 -10 19 22 c11 12 48 41 83 64 54 36 69 42 100 38 46
-6 160 48 222 106 24 22 98 74 166 116 67 42 136 90 154 108 27 28 53 85 43
96 -2 3 -49 -27 -106 -65 -56 -39 -121 -78 -144 -88 -38 -17 -118 -24 -130
-12 -3 3 -101 -43 -217 -102 -116 -60 -251 -125 -301 -146 -49 -21 -99 -42
-110 -47 -35 -15 -159 -60 -177 -65 -10 -2 -28 -6 -40 -9 -13 -3 -45 -6 -73
-6 -61 0 -199 -64 -374 -173 -64 -40 -138 -81 -166 -91 -61 -23 -148 -73 -211
-121 -25 -20 -71 -42 -101 -50 -66 -17 -113 -41 -218 -110 -98 -64 -217 -121
-271 -129 -44 -6 -96 5 -102 23 -6 18 84 99 134 121 25 11 73 30 107 42 34 12
82 37 107 54 25 17 93 55 151 83 80 38 117 63 147 97 28 32 46 44 63 43 35 -2
109 34 143 71 17 17 35 31 40 31 26 0 135 62 171 98 27 26 53 41 80 46 84 15
156 46 232 97 23 16 53 29 68 29 31 0 71 38 81 75 8 32 2 39 -23 27 -10 -5
-29 -14 -43 -20 -14 -6 -45 -19 -70 -30 -59 -27 -124 -55 -130 -57 -3 -1 -21
-8 -40 -17 -19 -9 -114 -49 -210 -91 -146 -62 -445 -195 -630 -279 -25 -12
-97 -44 -160 -73 -63 -29 -141 -64 -172 -79 -32 -14 -83 -37 -113 -51 -123
-56 -174 -79 -245 -112 -41 -19 -91 -42 -110 -50 -19 -8 -62 -28 -95 -43 -33
-15 -170 -76 -305 -135 -170 -76 -288 -135 -385 -195 -160 -100 -235 -139
-320 -168 -74 -25 -139 -36 -130 -22 10 17 87 65 165 105 99 51 179 107 213
150 31 38 62 105 50 105 -7 0 -53 -28 -354 -214 -137 -85 -278 -156 -296 -149
-7 3 -13 13 -13 23 0 15 -15 10 -87 -32 -95 -54 -350 -183 -528 -265 -60 -28
-162 -76 -225 -107 -89 -44 -116 -53 -118 -41 -2 8 -7 15 -12 15 -4 0 -75 -26
-156 -59 -421 -166 -623 -229 -784 -245 -323 -33 -687 -38 -900 -11 -358 44
-1290 38 -1680 -10 -19 -2 -64 -7 -100 -10 -36 -3 -76 -8 -90 -10 -14 -2 -45
-7 -70 -10 -25 -4 -56 -8 -70 -10 -14 -2 -50 -7 -80 -10 -30 -4 -74 -11 -98
-16 -23 -5 -59 -12 -80 -15 -20 -3 -48 -7 -62 -10 -32 -6 -55 -10 -105 -19
-22 -3 -48 -8 -57 -11 -17 -5 -46 -12 -88 -20 -131 -26 -367 -86 -520 -131
-177 -52 -208 -62 -315 -98 -113 -38 -396 -145 -450 -170 -16 -7 -73 -32 -125
-55 -240 -105 -510 -247 -747 -392 -108 -65 -381 -247 -410 -272 -17 -15 -30
-25 -98 -75 -334 -246 -752 -655 -1025 -1001 -41 -52 -77 -97 -80 -100 -18
-16 -201 -276 -282 -400 -211 -326 -392 -675 -578 -1115 -29 -68 -100 -260
-140 -380 -26 -77 -51 -147 -54 -156 -4 -9 -1 -23 7 -30 22 -23 33 -51 36 -94
2 -22 4 -41 6 -43 11 -12 71 133 95 231 118 479 416 1084 814 1652 68 97 254
339 307 400 208 238 318 356 505 535 303 291 722 609 1074 814 63 36 122 71
130 76 42 28 491 245 600 290 69 28 141 58 160 66 19 9 44 19 55 24 11 4 47
18 80 30 33 13 69 26 80 30 11 4 32 12 47 18 163 66 681 187 963 227 22 3 54
7 70 10 17 2 53 7 80 10 28 3 64 8 80 10 150 20 187 25 235 30 30 4 66 8 80
10 14 2 63 7 110 10 47 3 96 8 110 10 152 24 862 24 1060 1 19 -3 63 -7 97
-11 34 -3 70 -7 80 -9 10 -2 38 -7 63 -10 25 -3 54 -8 65 -10 11 -2 40 -7 65
-10 160 -24 490 -107 665 -168 115 -40 246 -87 278 -101 18 -8 77 -34 132 -57
226 -96 296 -133 293 -154 -6 -38 -33 -43 -87 -13 -57 30 -72 30 -125 -1 -51
-30 -66 -28 -127 18 -30 22 -60 40 -69 40 -8 1 -40 4 -70 8 -60 7 -382 9 -442
2 -30 -3 -35 -7 -26 -18 16 -18 85 -49 133 -58 l40 -8 -45 -13 c-34 -10 -93
-12 -240 -8 -107 3 -204 7 -215 9 -11 2 -58 7 -105 12 -47 4 -87 8 -90 9 -3 1
-30 9 -60 18 -30 9 -95 19 -145 22 -148 10 -169 14 -188 37 -18 21 -18 23 -1
35 10 7 38 13 63 14 116 1 389 17 446 24 17 3 59 7 95 10 36 3 79 7 95 9 17 2
70 7 119 11 49 4 97 9 105 10 9 2 36 4 60 4 43 1 43 2 27 20 -22 25 -114 50
-211 57 -43 3 -240 7 -439 8 -199 2 -372 6 -386 10 -100 30 -805 28 -967 -3
-23 -5 -79 -9 -125 -10 -113 -3 -151 -7 -273 -26 -36 -6 -179 -44 -220 -59
-38 -14 -32 -15 130 -16 94 -1 184 -4 200 -5 17 -2 47 -5 67 -7 21 -1 38 -6
38 -10 0 -4 -16 -18 -35 -30 -19 -13 -35 -26 -35 -30 0 -4 17 -12 38 -17 20
-5 64 -17 97 -27 49 -14 100 -17 280 -16 210 0 226 -1 340 -29 66 -16 144 -29
173 -29 28 0 52 -3 52 -8 0 -18 -34 -54 -68 -71 -59 -29 -100 -33 -397 -37
-283 -3 -495 -10 -550 -19 -66 -11 -82 -14 -129 -24 -27 -7 -58 -17 -70 -23
-20 -11 -20 -12 9 -20 49 -14 101 -20 260 -33 44 -4 107 -14 140 -22 33 -7 88
-18 123 -23 63 -8 104 -32 197 -115 17 -15 51 -38 78 -51 26 -13 47 -28 47
-33 0 -14 96 -58 160 -75 30 -7 71 -20 90 -28 l35 -15 -55 -6 c-30 -4 -79 -15
-108 -24 l-52 -18 73 -77 c58 -61 82 -79 120 -90 l48 -14 -20 -26 c-25 -32
-55 -43 -157 -62 -142 -26 -264 -85 -589 -284 -126 -78 -200 -118 -276 -153
-42 -20 -72 -41 -82 -59 -9 -15 -33 -44 -54 -65 -76 -76 -157 -119 -351 -185
-137 -47 -186 -72 -307 -157 -49 -35 -120 -79 -156 -98 -59 -30 -187 -120
-214 -150 -5 -6 -32 -29 -60 -50 -27 -22 -59 -47 -70 -57 -136 -113 -176 -145
-210 -166 -46 -29 -197 -177 -241 -237 -48 -65 -122 -180 -118 -184 6 -7 54
29 120 91 83 78 123 108 146 108 24 0 23 -13 -11 -92 -16 -38 -27 -68 -24 -68
14 0 77 53 158 131 130 127 182 161 290 191 47 13 116 11 132 -5 3 -4 -25 -40
-64 -80 -116 -120 -132 -161 -45 -117 26 14 51 26 56 28 4 3 5 -11 1 -29 -25
-115 -133 -216 -250 -235 -41 -6 -67 -35 -161 -179 -78 -118 -134 -194 -172
-235 -47 -49 -67 -85 -76 -140 -3 -19 -10 -51 -16 -70 -15 -51 -14 -51 34 -24
58 33 130 97 165 148 25 35 38 44 102 64 74 23 135 63 197 131 120 131 180
183 253 220 42 21 125 73 185 115 101 70 362 269 374 284 3 4 32 30 66 59 57
49 61 51 72 32 20 -32 -11 -82 -106 -167 -166 -150 -246 -242 -209 -242 8 0
58 29 112 65 114 75 191 103 304 112 l81 6 0 -41 c0 -54 -29 -86 -105 -117
-64 -26 -75 -25 -75 7 0 19 -2 18 -29 -9 -15 -16 -38 -37 -51 -46 -20 -14 -21
-18 -10 -51 16 -49 48 -57 98 -22 46 32 54 32 50 4 -2 -13 -21 -35 -47 -52
-46 -31 -108 -91 -272 -263 -61 -64 -118 -114 -155 -134 -72 -41 -72 -41 -124
-18 -24 11 -51 17 -61 14 -28 -9 -86 -79 -119 -145 -17 -33 -32 -60 -35 -60
-12 0 -45 46 -45 62 0 10 -7 21 -15 24 -19 8 -80 -33 -97 -64 -15 -29 -126
-132 -211 -197 -37 -28 -69 -61 -73 -75 -10 -36 -16 -62 -17 -85 -2 -22 -109
-236 -199 -394 -57 -101 -58 -104 -26 -78 39 31 148 96 273 162 111 58 171 99
189 128 55 91 77 118 124 157 29 25 93 86 141 135 241 247 301 305 361 352 36
28 115 100 175 160 114 112 217 203 272 241 33 23 147 82 158 82 12 0 -96
-133 -154 -190 -31 -30 -92 -87 -136 -125 -82 -72 -343 -330 -474 -469 -65
-69 -72 -80 -56 -86 35 -12 120 15 165 52 9 7 29 30 44 51 16 21 31 36 33 33
11 -11 108 26 150 57 27 19 92 60 147 91 95 55 101 57 150 51 85 -11 154 31
225 135 14 21 42 43 69 55 25 11 140 71 256 134 246 132 419 216 531 260 92
35 240 77 305 86 25 3 59 8 75 11 76 13 222 6 305 -15 118 -30 114 -28 98 -45
-21 -20 -65 -41 -148 -69 -153 -52 -576 -307 -930 -562 -149 -107 -415 -315
-481 -376 -14 -13 -57 -52 -95 -86 -83 -74 -259 -246 -334 -328 -97 -107 -221
-265 -207 -265 8 0 39 5 68 10 30 6 89 13 132 16 94 7 99 -4 32 -75 -26 -27
-48 -60 -50 -74 l-5 -24 38 18 c52 26 87 30 253 34 175 3 186 5 316 61 117 50
223 74 323 74 66 0 70 -1 61 -19 -12 -21 -60 -71 -141 -143 -29 -27 -48 -48
-43 -48 16 0 108 32 118 41 5 5 16 9 25 9 9 0 55 20 103 44 99 51 132 62 202
71 172 21 185 25 377 133 21 12 68 38 105 58 37 20 82 44 98 54 17 9 71 39
120 65 50 27 134 72 188 101 163 87 391 197 492 235 28 11 59 24 70 29 75 36
225 80 288 85 127 10 239 32 391 77 85 24 116 18 223 -48 78 -49 126 -86 217
-171 46 -43 59 -63 63 -92 4 -32 1 -40 -20 -54 -35 -23 -39 -60 -11 -99 30
-39 31 -84 4 -147 -19 -42 -19 -51 -7 -86 17 -50 22 -141 8 -150 -11 -6 -53
30 -64 56 -5 11 -10 9 -24 -10 -9 -13 -18 -33 -20 -45 -7 -51 -15 -65 -48 -85
-21 -12 -35 -28 -35 -40 0 -11 -20 -84 -45 -163 -25 -79 -52 -180 -59 -225 -7
-46 -19 -90 -27 -100 -44 -55 -65 -73 -85 -73 -12 0 -24 5 -26 12 -3 7 -10
-10 -17 -38 -7 -27 -20 -74 -28 -106 -24 -91 -195 -288 -249 -288 -17 0 -19
71 -3 87 22 22 4 35 -20 14 -13 -12 -27 -21 -30 -21 -3 0 -35 -27 -71 -60 -36
-32 -73 -59 -82 -60 -10 0 -26 -16 -37 -37 -35 -70 -176 -234 -284 -330 -70
-63 -206 -164 -313 -231 -91 -58 -164 -98 -369 -206 -11 -6 -56 -36 -100 -67
-44 -31 -143 -92 -221 -137 -77 -44 -156 -90 -175 -101 -19 -12 -41 -24 -49
-28 -16 -8 -139 -90 -235 -158 -129 -91 -201 -131 -530 -291 -393 -191 -595
-280 -756 -334 -52 -18 -101 -35 -109 -38 -8 -3 -19 -6 -25 -7 -5 -2 -37 -10
-70 -18 -77 -21 -216 -45 -297 -52 -34 -3 -85 -8 -113 -10 -150 -14 -436 -22
-833 -24 -123 -1 -127 -10 -31 -59 107 -54 173 -61 526 -56 303 4 313 4 333
-16 25 -25 65 -25 113 0 31 17 48 19 105 13 91 -9 425 -10 487 -1 64 10 145
31 215 56 30 11 84 20 119 21 44 2 81 10 115 26 60 28 81 32 119 22 23 -6 27
-12 22 -30 -22 -73 -115 -106 -188 -68 -40 20 -52 20 -99 2 -33 -12 -34 -17
-9 -55 38 -57 97 -79 219 -80 58 -1 75 -16 65 -54 -7 -29 -31 -36 -159 -46
-124 -10 -206 -26 -249 -50 -22 -11 -42 -24 -45 -28 -11 -14 -63 -28 -103 -28
-51 0 -112 33 -103 56 3 9 6 17 6 20 0 11 70 37 109 40 82 7 109 14 135 35 33
26 33 47 -1 92 -29 38 -42 43 -71 28 -64 -34 -182 -85 -209 -91 -17 -4 -51 -4
-75 0 -37 7 -50 4 -90 -18 -27 -15 -48 -30 -48 -33 0 -7 -79 4 -170 24 -62 13
-201 14 -280 2 -19 -3 -60 -8 -90 -11 -53 -7 -55 -6 -38 12 20 23 40 73 30 76
-4 1 -119 2 -257 3 -273 3 -284 4 -430 41 -97 25 -224 51 -295 60 -19 2 -51 6
-70 9 -19 2 -118 7 -220 10 -102 3 -214 11 -250 16 -186 30 -238 32 -250 10
-6 -13 -2 -24 17 -45 14 -15 23 -29 21 -31 -10 -10 -74 -15 -173 -14 -151 2
-297 0 -315 -4 -8 -2 -32 -7 -52 -12 -21 -4 -38 -10 -38 -14 0 -29 135 -126
243 -174 35 -15 34 -23 -3 -42 -32 -16 -54 -15 -148 11 -221 61 -335 62 -387
4 -16 -18 -15 -20 19 -42 27 -17 36 -30 36 -51 0 -38 -36 -51 -104 -38 -54 11
-110 15 -163 13 -29 -2 -33 -5 -33 -30 0 -34 20 -54 115 -115 39 -25 79 -54
89 -66 17 -19 17 -21 3 -22 -43 -3 -66 -1 -110 6 -33 5 -52 4 -62 -5 -13 -11
-8 -20 40 -67 30 -30 55 -58 55 -62 0 -4 -25 -13 -55 -20 -30 -7 -57 -16 -60
-21 -8 -13 72 -84 128 -114 29 -15 64 -44 80 -66 39 -54 98 -101 203 -159 93
-51 101 -65 68 -102 -13 -14 -8 -21 42 -63 32 -26 70 -54 86 -64 15 -9 28 -19
28 -23 0 -4 -21 -16 -47 -26 -48 -18 -53 -19 -75 -22 -23 -3 110 -81 144 -85
20 -3 51 3 73 13 l40 18 45 -37 c73 -59 154 -87 305 -104 230 -26 228 -26 241
-8 17 23 2 36 -56 50 -73 18 -118 40 -137 68 -14 22 -14 27 -2 35 26 18 151 1
264 -35 157 -50 226 -60 353 -50 135 10 341 11 365 2 16 -7 17 -10 2 -38 -9
-17 -24 -36 -35 -43 -25 -15 -26 -26 -3 -25 15 0 106 -20 158 -36 73 -22 186
-88 173 -101 -10 -10 -113 -25 -169 -25 -33 0 -59 -4 -59 -9 0 -14 96 -51 188
-72 48 -11 112 -28 142 -36 72 -21 150 -64 150 -83 0 -3 -6 -7 -12 -7 -7 -1
-29 -4 -48 -7 -55 -10 -109 -15 -170 -15 l-55 -1 25 -25 c37 -36 141 -60 310
-70 219 -13 267 -25 244 -62 -9 -14 -29 -18 -110 -19 -207 -3 -299 -22 -371
-76 -54 -41 -60 -43 -125 -43 -37 0 -68 -4 -68 -8 0 -21 23 -47 41 -47 12 0
47 -7 78 -15 31 -8 72 -17 91 -20 108 -18 229 -60 285 -98 l34 -23 -100 -13
c-96 -12 -149 -26 -149 -41 0 -3 16 -14 35 -23 19 -9 35 -21 35 -26 0 -16 -93
-42 -175 -48 -44 -3 -81 -7 -83 -8 -2 -2 20 -8 50 -14 109 -21 238 -30 643
-46 413 -16 449 -19 515 -40 25 -8 74 -19 110 -24 81 -12 400 -7 460 7 25 6
68 13 95 17 28 3 57 8 66 11 9 2 39 -4 66 -15 28 -11 84 -27 126 -35 96 -20
120 -30 146 -57 l20 -22 -24 -19 c-54 -42 -224 -97 -370 -119 -190 -28 -420
-30 -560 -6 -125 22 -618 43 -597 26 6 -5 76 -27 142 -44 8 -2 47 -14 85 -25
39 -12 84 -25 100 -29 68 -18 129 -43 158 -65 18 -13 48 -27 67 -32 19 -4 38
-9 43 -10 4 -1 16 -2 27 -3 15 -1 20 -8 20 -30 0 -43 19 -53 87 -45 59 7 82 7
118 0 11 -3 23 -5 27 -5 4 -1 20 -19 34 -41 14 -22 36 -43 48 -47 11 -4 67 -6
124 -5 56 2 112 0 123 -3 10 -4 30 -28 44 -55 30 -58 58 -70 161 -65 90 4 133
-5 197 -45 l50 -31 321 5 c177 3 341 7 366 10 49 4 140 15 180 21 14 2 49 7
79 10 30 4 63 9 75 11 291 55 487 117 714 225 43 21 76 30 105 29 106 -5 121
-1 201 40 45 22 104 61 131 85 l50 45 -35 0 c-19 0 -42 5 -50 10 -13 8 -12 11
5 25 56 43 158 107 224 140 l73 37 55 -25 c37 -16 66 -23 89 -20 32 4 34 3 35
-24 1 -15 1 -31 0 -35 -2 -12 8 -10 95 18 77 26 82 26 114 11 32 -17 34 -16
149 34 64 27 127 56 141 63 14 8 99 51 190 98 347 177 646 376 1019 677 197
160 189 153 229 158 51 6 54 8 222 166 36 34 100 94 141 132 280 261 422 399
719 695 185 184 383 386 440 449 58 63 114 124 125 135 43 44 353 405 414 481
110 137 285 376 354 481 69 105 87 151 62 161 -11 4 4 26 51 82 92 106 169
202 241 301 34 47 66 90 70 95 23 29 82 125 77 125 -10 0 -108 -68 -144 -101
-112 -101 -211 -205 -296 -309 -16 -19 -31 -37 -34 -40 -3 -3 -27 -32 -54 -65
-59 -71 -59 -71 -139 -159 -84 -93 -191 -196 -262 -251 -66 -51 -80 -57 -43
-17 14 15 38 42 54 61 16 19 34 39 39 45 6 6 28 32 50 56 22 25 65 74 95 110
30 35 66 76 80 90 14 14 47 53 75 86 27 32 52 61 56 64 6 5 168 194 244 284
78 94 111 130 180 200 39 39 98 114 132 166 35 52 93 137 130 189 70 96 85
124 102 187 10 35 10 35 -12 21 -12 -7 -51 -50 -87 -95 -65 -81 -109 -122
-129 -122 -10 0 3 35 19 50 3 3 24 30 45 60 22 30 89 116 148 190 122 152 217
291 271 395 43 84 78 166 73 172 -2 2 -28 -25 -58 -59 -30 -34 -86 -98 -124
-143 -39 -44 -95 -109 -125 -145 -30 -36 -57 -67 -60 -70 -3 -3 -57 -66 -120
-140 -63 -74 -121 -142 -129 -151 -9 -9 -43 -47 -76 -85 -89 -102 -131 -144
-143 -144 -21 0 62 120 292 426 83 109 176 239 208 289 169 262 217 333 226
339 32 20 156 256 134 256 -16 0 -130 -124 -212 -230 -137 -175 -242 -291
-255 -279 -2 3 16 34 40 71 51 76 110 183 120 215 6 21 4 22 -24 12 -16 -6
-36 -20 -44 -32 -8 -12 -23 -31 -34 -42 -10 -11 -32 -38 -48 -60 -17 -22 -35
-46 -42 -55 -7 -8 -81 -107 -164 -220 -196 -264 -308 -395 -325 -378 -15 16
203 315 444 612 65 79 128 158 142 176 14 18 32 41 40 51 8 10 28 36 44 59 23
31 37 40 58 40 60 0 105 40 163 143 22 40 25 53 17 77 -9 24 -5 36 32 91 49
73 79 146 74 178 -3 20 -10 16 -73 -41 -39 -35 -82 -77 -95 -95 -14 -18 -65
-85 -115 -150 -101 -133 -218 -260 -223 -244 -6 18 47 112 121 216 126 175
147 213 172 308 l13 47 -29 0 c-20 0 -40 -11 -67 -37 -56 -56 -142 -126 -187
-153 -47 -28 -40 -18 46 69 52 53 84 112 72 134 -2 4 -24 -7 -49 -25 -78 -56
-67 -11 20 80 139 146 160 169 172 197 10 25 10 33 -3 47 -14 16 -18 15 -61
-20 -49 -39 -101 -86 -211 -190 -36 -34 -97 -83 -136 -109 -128 -85 -160 -107
-233 -165 -66 -52 -105 -75 -154 -92 -10 -3 -18 -4 -18 -2 0 2 29 33 65 69 36
37 65 75 65 86 0 19 -2 19 -41 6 -46 -16 -89 -20 -89 -7 0 5 35 33 78 62 85
60 186 143 246 202 l40 38 13 -31 c7 -17 10 -36 7 -41 -11 -17 37 2 91 37 54
34 115 97 115 119 0 7 -11 19 -25 26 -14 7 -25 16 -24 19 0 7 146 128 294 246
105 83 682 517 921 692 143 104 401 296 419 310 125 102 382 292 509 378 33
22 88 67 123 100 56 53 63 65 63 98 0 28 -3 36 -12 30 -7 -4 -157 -108 -333
-232 -413 -290 -769 -539 -890 -621 -52 -36 -194 -133 -315 -217 -121 -83
-220 -150 -220 -148 0 7 331 267 520 409 107 80 200 149 205 154 38 29 303
224 410 302 72 52 151 110 177 130 26 19 63 46 82 60 20 14 46 33 58 42 13 9
79 58 148 108 68 50 134 97 145 106 186 137 333 247 345 257 8 6 63 48 123 92
59 43 108 85 108 92 1 7 2 23 3 35 1 14 25 42 66 76 94 78 150 133 165 162 14
29 28 80 21 80 -3 0 -65 -46 -139 -103 -74 -57 -152 -114 -173 -127 -21 -13
-41 -27 -44 -31 -3 -4 -67 -45 -142 -91 -147 -89 -285 -181 -768 -512 -168
-115 -343 -234 -390 -264 -47 -30 -114 -74 -150 -97 -57 -36 -209 -129 -288
-176 -15 -8 -58 -33 -97 -53 -38 -21 -74 -42 -80 -46 -5 -5 -91 -49 -190 -98
-127 -64 -183 -88 -192 -81 -6 6 -9 17 -6 25 13 34 -143 -48 -297 -157 -205
-144 -375 -249 -404 -249 -4 0 26 28 66 62 40 35 75 65 78 69 6 7 285 218 317
239 74 50 258 188 448 336 121 94 328 248 460 342 132 94 245 175 250 179 6 4
46 35 90 67 44 33 135 103 202 157 67 53 168 123 225 155 153 86 430 249 538
317 166 105 455 291 460 297 3 3 52 37 110 75 58 39 107 73 108 78 2 4 8 7 13
7 6 0 15 5 22 10 7 6 111 82 232 168 211 151 454 330 465 342 3 3 29 23 58 44
28 21 52 40 52 42 0 7 -239 -119 -350 -183 -47 -27 -92 -52 -100 -56 -30 -14
-344 -207 -705 -435 -204 -129 -379 -239 -390 -245 -11 -7 -49 -30 -85 -53
-36 -22 -138 -84 -227 -137 -90 -54 -373 -238 -630 -410 -258 -173 -625 -419
-818 -548 -192 -129 -372 -249 -400 -267 -80 -51 -86 -55 -170 -108 -102 -64
-165 -100 -141 -80 10 8 32 28 50 43 124 111 498 414 711 575 28 21 55 41 60
46 113 87 390 281 690 482 348 233 577 404 604 451 30 52 52 68 107 75 32 5
74 22 121 50 40 24 121 69 180 100 270 143 535 299 563 333 27 33 105 82 137
86 103 16 219 79 305 168 26 26 59 49 83 56 125 37 226 101 344 218 84 83 85
84 143 88 80 6 115 27 138 80 16 38 22 44 47 41 43 -4 108 19 160 56 27 19
134 85 238 148 211 126 385 242 448 298 51 45 147 145 143 149 -5 5 -224 -77
-306 -114 -162 -74 -472 -232 -645 -329 -115 -65 -235 -126 -265 -136 -40 -14
-71 -35 -115 -77 -54 -53 -187 -138 -400 -256 -149 -83 -343 -189 -440 -240
-60 -32 -132 -71 -158 -87 -26 -15 -50 -28 -52 -28 -2 0 -63 -34 -136 -75 -72
-41 -133 -75 -134 -75 -1 0 -90 -51 -196 -113 -227 -133 -394 -236 -574 -357
-129 -86 -130 -87 -162 -73 -26 10 -33 19 -32 41 0 26 49 74 163 162 300 230
453 332 936 628 285 174 247 152 352 206 274 143 378 211 439 289 l41 51 66
-1 c115 -2 194 37 227 112 8 19 30 39 61 55 27 14 96 51 154 84 58 32 132 73
165 91 142 77 250 137 361 200 66 38 138 79 162 92 155 85 325 183 406 232 36
23 68 41 71 41 2 0 19 10 38 23 18 12 73 47 121 77 148 92 293 198 351 255 59
57 68 76 34 70 -12 -3 -28 -1 -37 4 -10 6 11 22 79 62 115 65 191 115 288 187
79 59 184 153 178 159 -10 9 -198 -66 -347 -139 -91 -45 -169 -82 -175 -83
-33 -8 -85 -36 -114 -64 -28 -26 -50 -37 -93 -47 -5 -1 -21 -2 -38 -3 -19 -1
-65 -25 -127 -68 -116 -79 -181 -110 -246 -116 l-48 -4 28 30 c48 51 205 178
281 228 64 42 76 47 100 38 15 -6 41 -8 58 -5 34 7 88 57 102 96 8 23 14 25
69 25 57 0 64 3 123 49 34 27 75 67 92 90 27 38 33 41 81 43 29 1 63 5 77 9
14 4 31 8 38 10 21 4 95 51 125 78 16 14 39 45 52 68 22 39 27 42 112 63 89
23 188 70 272 130 34 25 53 32 74 28 22 -4 36 3 75 39 61 57 78 66 122 64 60
-3 131 24 200 75 19 15 53 35 75 45 22 10 42 21 45 24 3 3 19 14 35 24 17 11
53 42 82 70 43 42 61 52 110 62 119 24 192 75 260 182 31 48 37 52 71 52 21 0
62 7 92 16 53 16 77 29 200 109 53 35 76 43 124 47 53 4 63 9 93 41 23 26 47
40 79 47 129 29 191 86 223 207 10 38 15 43 49 48 81 13 117 34 177 101 62 70
131 126 207 168 56 31 58 31 107 8 l38 -19 43 37 c24 21 58 42 76 48 l32 10
-3 -36 c-2 -24 -10 -41 -24 -50 -28 -19 -27 -27 9 -42 45 -18 136 -7 205 25
54 26 135 96 135 117 0 5 -15 8 -32 7 -74 -6 -94 21 -63 81 12 24 23 30 62 35
91 13 273 64 318 90 24 15 55 38 67 53 121 138 199 195 258 189 79 -8 157 54
175 140 5 28 4 32 -12 28 -230 -53 -215 -47 -287 -120 -89 -88 -154 -119 -256
-120 -61 -1 -84 -6 -120 -27 -42 -24 -69 -33 -128 -44 -12 -3 -39 -21 -60 -40
-58 -56 -77 -66 -135 -68 -43 -2 -62 -8 -87 -29 -18 -15 -45 -34 -61 -43 -28
-14 -30 -14 -38 8 -5 13 -6 29 -4 36 12 29 -43 0 -155 -84 -101 -74 -150 -94
-187 -74 -36 19 -38 39 -10 82 34 51 114 89 260 123 130 30 187 50 235 82 19
13 43 23 54 23 41 0 99 25 139 60 40 35 44 36 72 24 49 -21 63 -17 77 22 10
27 24 42 60 60 46 23 66 46 62 72 -1 6 -2 20 -3 30 -1 10 -4 13 -9 7 -15 -21
-91 -76 -126 -90 -20 -9 -49 -14 -64 -11 -15 2 -33 5 -39 5 -7 1 -13 5 -13 11
0 12 70 83 139 140 30 25 68 59 84 77 28 30 31 31 127 35 84 2 103 6 127 25
76 61 120 71 170 38 l25 -17 -50 -49 c-48 -47 -71 -89 -50 -89 5 0 52 19 104
41 81 36 94 45 94 66 0 46 29 83 83 109 29 13 57 24 62 24 6 0 23 10 38 23 20
16 30 33 32 60 4 42 -4 46 -31 16 -16 -19 -72 -49 -89 -49 -12 0 19 46 64 93
66 71 109 95 172 98 101 5 199 37 394 129 134 63 270 110 342 117 53 6 53 6
105 78 75 104 96 116 188 109 86 -7 129 7 178 56 20 19 41 30 59 30 85 0 148
37 202 120 32 48 91 90 223 160 111 58 111 58 151 44 59 -21 121 -24 151 -9
15 8 49 39 76 68 53 58 91 81 153 92 l39 8 -16 -31 c-9 -17 -16 -33 -16 -37 0
-14 29 -2 62 25 30 25 37 38 40 72 3 45 10 51 78 68 27 7 63 27 90 52 65 58
185 135 249 159 32 12 88 22 131 24 136 7 288 48 372 101 21 13 40 24 42 24
14 0 91 81 107 112 30 60 27 66 -38 65 -32 0 -74 -4 -94 -8z m-19866 -6693
c12 -8 46 -14 77 -14 63 1 100 -6 185 -32 77 -24 221 -76 260 -94 94 -44 303
-120 360 -132 6 -1 39 -10 75 -19 36 -9 72 -18 80 -20 104 -21 271 -79 342
-120 l41 -23 -34 -21 c-19 -12 -38 -21 -44 -22 -5 0 -19 -3 -30 -5 -11 -2 -54
-5 -95 -5 -160 -2 -422 67 -731 192 -81 32 -149 59 -152 59 -3 0 -52 22 -109
49 -186 88 -212 98 -273 111 -33 7 -73 20 -89 28 l-30 15 37 33 c41 38 90 45
130 20z m5212 -5873 c-1 -21 -8 -51 -14 -68 -16 -39 -103 -151 -226 -291 -206
-235 -526 -550 -619 -612 -44 -28 -82 -50 -84 -47 -4 3 58 111 80 140 106 138
180 218 432 470 166 165 328 332 361 372 33 39 63 72 66 72 4 1 5 -16 4 -36z
m-5351 -745 c-13 -63 -29 -76 -142 -118 -18 -7 -47 -31 -64 -54 -53 -69 -129
-129 -201 -159 -21 -9 -37 -23 -37 -32 0 -46 -57 -85 -125 -85 -26 0 -35 -6
-44 -28 -8 -19 -25 -33 -49 -42 -97 -34 -249 -163 -328 -277 -68 -98 -93 -119
-159 -133 -33 -7 -87 -27 -121 -46 -89 -50 -111 -44 -49 12 57 51 110 83 178
109 26 10 47 23 48 29 2 34 12 53 61 114 29 37 64 89 77 115 15 29 41 60 65
77 67 46 95 82 105 133 5 27 10 49 12 51 2 2 53 29 114 61 60 31 121 65 135
74 50 34 156 76 220 86 41 7 150 57 235 109 33 20 64 36 68 36 5 0 5 -15 1
-32z m4061 1 c19 -58 -34 -143 -84 -137 -21 2 -26 8 -27 33 -1 40 14 75 43
103 30 28 60 28 68 1z m-5291 -373 c-18 -53 -42 -80 -97 -107 -23 -12 -89 -54
-147 -94 -174 -120 -226 -143 -275 -125 -20 8 -39 -1 -116 -52 -88 -58 -164
-97 -218 -113 l-24 -7 21 29 c11 16 40 47 64 70 26 23 51 59 62 86 22 60 77
107 152 131 33 11 87 32 121 47 60 27 138 50 217 64 42 7 66 20 139 77 34 27
59 38 82 38 l34 0 -15 -44z m5030 -23 c-18 -102 -46 -165 -101 -222 -37 -39
-65 -82 -88 -135 -18 -42 -57 -119 -86 -169 -29 -51 -52 -97 -52 -103 0 -7 5
-26 13 -43 10 -24 18 -31 41 -31 31 0 33 3 140 150 97 134 153 185 215 196 18
3 73 51 163 141 l136 136 6 -33 c4 -19 5 -43 3 -54 -2 -12 -7 -37 -10 -56 -16
-86 -47 -118 -325 -342 -108 -87 -236 -197 -286 -245 -85 -82 -153 -164 -153
-185 0 -15 51 0 93 28 30 20 41 23 48 13 11 -18 -6 -45 -49 -82 -58 -49 -193
-186 -246 -249 l-47 -57 42 -11 c52 -14 79 -8 152 36 62 38 87 39 87 2 0 -15
-13 -31 -37 -48 -21 -14 -83 -69 -139 -123 -136 -130 -153 -179 -60 -173 l38
3 -6 -45 c-7 -55 -27 -78 -84 -103 -36 -16 -182 -132 -262 -209 -14 -14 -49
-46 -78 -71 -28 -26 -56 -58 -61 -72 -9 -23 -6 -30 32 -61 l41 -34 36 19 c61
33 94 53 127 77 36 26 53 22 53 -12 0 -62 -125 -191 -280 -291 -130 -83 -169
-100 -187 -82 -12 11 -7 19 30 53 34 31 43 45 41 69 -1 17 -2 40 -3 53 -2 31
-33 29 -94 -9 -27 -16 -55 -28 -62 -25 -25 9 -27 72 -4 126 12 28 20 53 17 55
-18 18 -230 -88 -288 -144 -25 -24 -70 -57 -100 -73 -30 -17 -70 -43 -88 -59
-18 -16 -34 -29 -37 -29 -2 0 6 18 18 40 26 47 16 77 -24 72 -53 -7 -129 -35
-129 -49 0 -7 -6 -15 -12 -17 -87 -27 -179 -70 -255 -121 -51 -35 -93 -60 -93
-57 0 22 64 107 119 157 36 33 131 125 210 204 80 79 199 191 266 249 66 58
122 108 125 111 3 3 26 23 52 44 26 21 53 43 60 50 7 7 54 46 103 87 50 41 95
79 101 85 6 5 44 39 84 75 119 107 303 368 828 1175 135 208 221 340 234 358
41 59 70 97 74 97 3 0 2 -17 -2 -37z m-7139 -1333 c22 0 69 7 104 15 35 9 95
18 133 22 l68 6 0 -38 c0 -73 -77 -146 -245 -232 l-93 -47 -128 24 c-70 14
-133 31 -141 38 -17 18 -17 57 2 75 8 9 34 23 59 32 37 14 44 22 49 50 3 19
15 47 27 63 l21 29 52 -18 c29 -10 70 -18 92 -19z"/>
<path d="M15927 21224 c-62 -12 -167 -57 -203 -87 -117 -96 -174 -210 -174
-347 0 -322 340 -539 630 -402 69 33 179 140 212 207 87 171 52 371 -89 512
-59 58 -158 111 -225 119 -24 2 -52 6 -63 8 -11 2 -50 -2 -88 -10z m87 -63
c43 -24 51 -64 21 -99 -23 -27 -51 -40 -141 -62 -60 -15 -105 -54 -175 -157
-35 -51 -70 -101 -76 -110 -21 -29 -7 125 15 185 24 63 83 144 125 174 18 12
34 25 37 29 5 7 74 43 100 52 28 10 65 5 94 -12z"/>
<path d="M4400 14773 c-8 -8 -108 -105 -221 -216 -266 -261 -366 -375 -466
-532 -23 -37 -29 -53 -21 -62 15 -18 27 -7 110 107 38 52 138 163 221 246 275
273 407 415 407 440 0 29 -11 35 -30 17z"/>
<path d="M1737 14724 c-31 -22 -55 -50 -66 -77 -10 -23 -29 -51 -42 -63 -52
-46 -178 -182 -217 -234 -23 -31 -52 -81 -66 -111 -13 -30 -31 -61 -39 -68
-21 -17 -35 -62 -42 -139 -6 -71 -34 -136 -65 -152 -18 -10 -22 -7 -36 26
l-15 36 -36 -58 c-19 -33 -44 -72 -56 -88 -44 -64 -168 -320 -215 -446 -51
-134 -96 -331 -107 -465 -4 -53 -13 -89 -25 -106 -47 -66 -72 -129 -76 -193
-2 -36 -2 -66 0 -66 3 0 26 11 51 24 54 29 89 22 130 -25 19 -24 22 -35 15
-53 -5 -13 -12 -50 -16 -83 -13 -113 -6 -150 31 -159 24 -6 25 -9 19 -53 -13
-87 -3 -291 14 -291 4 0 20 14 36 31 63 66 110 81 161 49 19 -11 35 -26 37
-32 6 -16 48 -3 79 24 38 34 58 69 75 134 20 78 53 112 115 120 46 6 50 10
103 84 86 118 172 322 191 450 4 25 8 47 10 50 13 21 19 143 12 230 -4 47 14
170 37 255 3 11 17 64 31 118 14 54 37 123 51 155 40 91 51 157 53 327 2 153
3 164 33 240 30 79 37 131 20 161 -7 13 -11 11 -26 -10 -20 -32 -43 -34 -48
-3 -6 34 10 94 44 171 28 62 32 82 32 156 0 47 -5 105 -13 129 l-12 43 -29
-27 c-25 -24 -32 -26 -45 -15 -8 7 -15 19 -15 26 0 22 -22 16 -73 -22z"/>
<path d="M4059 13857 c-316 -330 -324 -339 -341 -389 -6 -18 -59 -98 -117
-178 -123 -167 -141 -195 -141 -216 0 -48 168 128 305 321 32 44 74 100 95
125 20 25 67 90 105 145 85 124 165 222 187 230 50 18 98 101 70 119 -5 3 -78
-68 -163 -157z"/>
<path d="M4838 13572 c-49 -22 -76 -60 -98 -132 l-18 -60 25 0 c76 0 173 95
189 186 4 21 1 24 -28 24 -18 0 -50 -8 -70 -18z"/>
<path d="M368 12497 c-14 -12 -31 -38 -38 -59 -10 -34 -25 -47 -58 -54 -33 -6
-43 -17 -70 -71 -33 -67 -64 -158 -86 -256 -15 -65 -18 -80 -32 -162 -10 -60
-8 -115 7 -163 13 -41 12 -44 -28 -126 -41 -83 -42 -86 -50 -228 -15 -289 -9
-853 13 -1053 20 -197 36 -314 50 -390 2 -11 9 -49 14 -85 15 -90 16 -97 34
-171 8 -37 17 -78 20 -90 15 -81 94 -347 144 -489 161 -455 454 -1041 587
-1174 20 -21 39 -35 42 -32 3 2 -24 56 -60 118 -208 362 -389 779 -529 1218
-70 219 -134 505 -153 685 -4 33 -8 71 -11 85 -2 14 -6 52 -10 85 -3 33 -7 71
-10 85 -2 13 -6 65 -10 115 -3 49 -7 106 -10 125 -24 221 -23 753 1 860 3 14
8 70 12 125 3 55 10 106 15 112 6 7 26 15 47 19 20 4 44 11 53 15 33 18 48
111 63 394 5 101 9 150 20 230 2 17 7 53 11 80 3 28 8 59 10 70 2 11 6 31 9
45 2 14 13 50 24 81 23 68 16 87 -21 56z"/>
<path d="M7145 12049 c-16 -5 -61 -29 -100 -53 -74 -48 -232 -138 -422 -242
-176 -97 -323 -195 -372 -248 -22 -24 -31 -26 -103 -26 -157 0 -271 -39 -523
-178 -65 -36 -164 -76 -171 -69 -2 2 31 30 73 63 138 106 165 143 130 172 -9
8 -24 2 -54 -19 -24 -15 -55 -35 -70 -44 -16 -8 -35 -20 -43 -25 -38 -24 -194
-107 -400 -212 -358 -184 -389 -201 -423 -230 -26 -21 -30 -29 -20 -39 10 -10
40 1 150 58 136 69 166 77 177 47 8 -22 1 -31 -42 -51 -63 -29 -113 -65 -127
-93 -12 -23 -11 -27 6 -38 36 -23 21 -41 -67 -83 -55 -26 -88 -49 -93 -62 -16
-42 -1 -46 49 -15 51 32 93 34 98 6 5 -24 -52 -74 -107 -95 -57 -21 -109 -53
-116 -73 -6 -15 20 -40 42 -40 8 0 58 19 111 42 144 61 215 88 220 84 2 -2
-13 -22 -33 -45 -33 -36 -116 -94 -187 -130 -39 -20 -70 -50 -62 -62 14 -24
89 -6 209 51 74 35 112 44 121 29 9 -15 -64 -80 -114 -103 l-39 -18 9 -41 c5
-23 15 -47 23 -53 32 -24 179 21 222 68 20 22 46 23 68 2 15 -15 12 -19 -40
-50 -31 -19 -60 -34 -64 -34 -4 0 -40 -31 -81 -70 l-72 -69 59 -58 c38 -38 63
-74 73 -102 13 -40 15 -42 44 -36 17 3 53 9 80 12 l50 6 -23 -32 c-30 -42 -56
-58 -142 -87 -88 -30 -138 -58 -162 -90 l-18 -24 93 5 c165 9 272 19 423 41
157 22 366 84 490 144 44 21 81 37 83 35 1 -1 -18 -41 -43 -89 -48 -91 -48
-88 12 -89 20 -1 21 -3 7 -28 -16 -31 -60 -69 -80 -69 -28 0 -14 -37 18 -51
44 -18 54 -16 149 29 46 22 179 83 294 135 314 142 337 153 474 221 406 202
721 426 883 626 52 65 95 157 96 210 2 44 2 44 -15 25 -27 -31 -74 -65 -89
-65 -10 0 -6 17 16 60 28 55 39 118 23 133 -3 4 -26 -11 -49 -33 -24 -22 -49
-40 -56 -41 -7 0 -23 -2 -35 -5 -21 -4 -22 -3 -8 35 19 55 6 70 -40 48 -20
-10 -41 -15 -46 -11 -5 3 64 78 155 167 106 105 180 187 209 232 44 69 77 156
77 203 0 28 3 31 -159 -148 -118 -131 -241 -251 -309 -303 -58 -44 -62 -45
-48 -19 8 16 33 52 56 81 51 64 87 132 96 178 5 28 2 39 -14 56 -26 25 -37 18
-83 -56 -68 -108 -187 -236 -280 -299 -25 -18 -56 -46 -69 -63 -13 -16 -47
-50 -77 -75 -29 -25 -63 -54 -76 -64 -30 -26 -169 -115 -242 -157 l-60 -33 34
44 c62 80 215 225 261 248 63 31 76 44 164 157 102 132 170 201 233 237 29 16
72 53 95 81 24 28 69 79 101 113 55 59 69 84 46 84 -20 0 -4 105 31 196 l20
55 -29 5 c-27 6 -29 9 -24 40 3 19 3 34 1 34 -3 0 -35 -13 -71 -30 -37 -16
-71 -30 -77 -30 -6 0 5 22 24 49 23 35 32 57 29 75 l-5 25 -47 -38 c-56 -47
-102 -71 -136 -71 l-26 0 22 30 c13 16 23 40 24 54 0 22 -2 24 -35 18 -19 -3
-52 -11 -74 -19 -55 -19 -59 -17 -41 18 9 17 15 38 13 48 -2 14 -8 16 -33 10z"/>
<path d="M7892 11947 c-56 -21 -109 -81 -132 -153 -12 -35 -25 -64 -28 -64
-14 0 -60 -86 -65 -120 -9 -74 3 -76 74 -7 94 90 142 165 184 286 25 73 23 78
-33 58z"/>
<path d="M935 10850 c10 -11 20 -20 23 -20 3 0 -3 9 -13 20 -10 11 -20 20 -23
20 -3 0 3 -9 13 -20z"/>
<path d="M3525 10400 c3 -5 8 -10 11 -10 2 0 4 5 4 10 0 6 -5 10 -11 10 -5 0
-7 -4 -4 -10z"/>
<path d="M4190 9796 c0 -8 4 -17 9 -20 10 -7 23 19 14 28 -11 11 -23 6 -23 -8z"/>
<path d="M1462 9345 c14 -15 21 -16 40 -7 23 11 23 11 1 11 -12 1 -30 4 -40 7
-17 6 -17 6 -1 -11z"/>
<path d="M4624 8986 c0 -13 4 -22 9 -19 10 6 9 31 -2 37 -5 3 -8 -5 -7 -18z"/>
<path d="M2411 7027 c-25 -25 -7 -36 23 -14 16 12 17 15 4 20 -9 3 -21 0 -27
-6z"/>
<path d="M9934 5989 c-49 -28 -162 -100 -250 -160 -284 -190 -432 -273 -611
-342 -109 -42 -141 -58 -170 -87 -32 -29 -29 -39 10 -34 17 2 49 6 70 9 60 8
320 120 421 182 165 100 512 342 556 387 55 56 75 84 68 92 -3 2 -45 -19 -94
-47z"/>
</g>
</svg>
